<svg version="1.1" viewBox="0 0 48 48" xmlns="http://www.w3.org/2000/svg">
  <defs>
    <linearGradient id="bg" x2="0" y1="1" y2="47" gradientUnits="userSpaceOnUse" spreadMethod="pad">
      <stop style="stop-color: rgb(51, 165, 221);" offset="0"></stop>
      <stop style="stop-color: rgb(51, 165, 221);" offset="1"></stop>
    </linearGradient>
  </defs>
  <path d="m1 43v0.25c0 2.216 1.784 4 4 4h38c2.216 0 4-1.784 4-4v-0.25c0 2.216-1.784 4-4 4h-38c-2.216 0-4-1.784-4-4zm0 0.5v0.5c0 2.216 1.784 4 4 4h38c2.216 0 4-1.784 4-4v-0.5c0 2.216-1.784 4-4 4h-38c-2.216 0-4-1.784-4-4z" style="opacity:.02"></path>
  <path d="m1 43.25v0.25c0 2.216 1.784 4 4 4h38c2.216 0 4-1.784 4-4v-0.25c0 2.216-1.784 4-4 4h-38c-2.216 0-4-1.784-4-4z" style="opacity:.05"></path>
  <path d="m1 43v0.25c0 2.216 1.784 4 4 4h38c2.216 0 4-1.784 4-4v-0.25c0 2.216-1.784 4-4 4h-38c-2.216 0-4-1.784-4-4z" style="opacity:.1"></path>
  <rect x="1" y="1" width="46" height="46" rx="4" style="fill: url(#bg); paint-order: fill;"></rect>
  <path d="m1 39v4c0 2.216 1.784 4 4 4h38c2.216 0 4-1.784 4-4v-4c0 2.216-1.784 4-4 4h-38c-2.216 0-4-1.784-4-4z" style="opacity:.1"></path>
  <path d="M 8.925 10.252 C 9.081 10.252 9.097 10.33 9.097 10.448 C 9.345 17.499 12.268 24.166 17.232 29.006 C 22.258 33.993 29.015 36.681 35.982 36.462 C 20.345 43.024 3.889 27.511 8.925 10.252 Z M 16.003 8 C 17.791 20.814 24.442 28.602 38 29.245 C 25.997 34.047 13.472 23.604 15.452 10.455 C 15.579 9.62 15.765 8.803 16.003 8 Z" style="fill-opacity: 0.2;" transform="matrix(1, -0.000001, 0.000001, 1, -0.000023, 0.000023)"></path>
  <path d="M 8.985 8.401 C 9.154 8.401 9.17 8.482 9.17 8.608 C 9.437 16.132 12.553 23.241 17.848 28.405 C 23.211 33.725 30.418 36.591 37.848 36.359 C 21.17 43.36 3.617 26.811 8.985 8.401 Z M 16.539 6 C 18.446 19.667 25.539 27.975 40 28.66 C 27.197 33.777 13.839 22.644 15.952 8.616 C 16.086 7.728 16.282 6.856 16.539 6 Z" style="fill: rgb(255, 255, 255);"></path>
</svg>
