<svg version="1.1" viewBox="0 0 48 48" xmlns="http://www.w3.org/2000/svg">
  <defs>
    <linearGradient id="linearGradient3764" x1="1" x2="47" gradientTransform="rotate(-90 24 24)" gradientUnits="userSpaceOnUse">
      <stop style="stop-color:#4b89d5" offset="0"></stop>
      <stop style="stop-color:#5b92d9" offset="1"></stop>
    </linearGradient>
  </defs>
  <path d="m36.31 5c5.859 4.062 9.688 10.831 9.688 18.5 0 12.426-10.07 22.5-22.5 22.5-7.669 0-14.438-3.828-18.5-9.688 1.037 1.822 2.306 3.499 3.781 4.969 4.085 3.712 9.514 5.969 15.469 5.969 12.703 0 23-10.298 23-23 0-5.954-2.256-11.384-5.969-15.469-1.469-1.475-3.147-2.744-4.969-3.781zm4.969 3.781c3.854 4.113 6.219 9.637 6.219 15.719 0 12.703-10.297 23-23 23-6.081 0-11.606-2.364-15.719-6.219 4.16 4.144 9.883 6.719 16.219 6.719 12.703 0 23-10.298 23-23 0-6.335-2.575-12.06-6.719-16.219z" style="opacity:.05"></path>
  <path d="m41.28 8.781c3.712 4.085 5.969 9.514 5.969 15.469 0 12.703-10.297 23-23 23-5.954 0-11.384-2.256-15.469-5.969 4.113 3.854 9.637 6.219 15.719 6.219 12.703 0 23-10.298 23-23 0-6.081-2.364-11.606-6.219-15.719z" style="opacity:.1"></path>
  <path d="m31.25 2.375c8.615 3.154 14.75 11.417 14.75 21.13 0 12.426-10.07 22.5-22.5 22.5-9.708 0-17.971-6.135-21.12-14.75a23 23 0 0 0 44.875-7 23 23 0 0 0-16-21.875z" style="opacity:.2"></path>
  <path d="m24 1c12.703 0 23 10.297 23 23s-10.297 23-23 23-23-10.297-23-23 10.297-23 23-23z" style="fill:url(#linearGradient3764)"></path>
  <path d="M 40 24.5 C 40 33.06 33.06 40 24.5 40 C 15.94 40 9 33.06 9 24.5 C 9 15.94 15.94 9 24.5 9 C 33.06 9 40 15.94 40 24.5 Z" style="opacity:.1;stroke-width:1.0607"></path>
  <path d="m39 24a15 15 0 0 1-15 15 15 15 0 0 1-15-15 15 15 0 0 1 15-15 15 15 0 0 1 15 15z" style="fill:#f9f9f9;stroke-width:1.0607"></path>
  <path d="m40.03 7.531c3.712 4.084 5.969 9.514 5.969 15.469 0 12.703-10.297 23-23 23-5.954 0-11.384-2.256-15.469-5.969 4.178 4.291 10.01 6.969 16.469 6.969 12.703 0 23-10.298 23-23 0-6.462-2.677-12.291-6.969-16.469z" style="opacity:.1"></path>
  <path d="M 24.013 8.5 C 12.089 8.5 4.637 21.417 10.6 31.752 C 16.561 42.087 31.465 42.087 37.431 31.752 C 38.788 29.396 39.501 26.722 39.501 24.002 C 39.501 15.438 32.569 8.5 24.013 8.5 Z M 14.565 15.699 C 14.671 15.699 14.682 15.746 14.682 15.825 C 14.847 20.404 16.81 24.732 20.144 27.877 C 23.518 31.119 28.052 32.861 32.728 32.722 C 22.233 36.984 11.186 26.908 14.565 15.699 Z M 19.318 14.236 C 20.519 22.559 24.981 27.615 34.082 28.032 C 26.026 31.15 17.618 24.368 18.949 15.829 C 19.033 15.289 19.157 14.755 19.318 14.236 Z" style="fill:#33a5dd"></path>
</svg>
